<svg xmlns="http://www.w3.org/2000/svg" width="1242" height="2688">
  <defs>
    <radialGradient id="bg" cx="48%" cy="28%" r="82%">
      <stop offset="0%" stop-color="#728198"/>
      <stop offset="38%" stop-color="#495462"/>
      <stop offset="100%" stop-color="#242b33"/>
    </radialGradient>
    <radialGradient id="haloGlow" cx="50%" cy="42%" r="60%">
      <stop offset="0%" stop-color="#eef8ff" stop-opacity="0.96"/>
      <stop offset="28%" stop-color="#d7eaff" stop-opacity="0.54"/>
      <stop offset="100%" stop-color="#ffffff" stop-opacity="0"/>
    </radialGradient>
    <linearGradient id="markFill" x1="10%" y1="0%" x2="90%" y2="100%">
      <stop offset="0%" stop-color="#ffffff"/>
      <stop offset="100%" stop-color="#d4e6ff"/>
    </linearGradient>
    <linearGradient id="innerDrop" x1="0%" y1="0%" x2="100%" y2="100%">
      <stop offset="0%" stop-color="#536374"/>
      <stop offset="100%" stop-color="#26313f"/>
    </linearGradient>
    <filter id="blurGlow">
      <feGaussianBlur stdDeviation="27.323999999999998" result="b"/>
      <feMerge><feMergeNode in="b"/><feMergeNode in="SourceGraphic"/></feMerge>
    </filter>
    <filter id="markShadow">
      <feDropShadow dx="0" dy="8.694" stdDeviation="14.904" flood-color="#f2fbff" flood-opacity="0.24"/>
    </filter>
  </defs>
  <rect width="1242" height="2688" fill="url(#bg)"/>
  <ellipse cx="621" cy="1155.84" rx="192.51" ry="229.77" fill="rgba(255,255,255,0.035)" stroke="rgba(226,240,255,0.9)" stroke-width="5.9616" filter="url(#blurGlow)"/>
  <g filter="url(#markShadow)" transform="rotate(12 621 1155.84)">
    <path d="M 581.877 1269.75 Q 576.6605999999999 1206.0354 563.6196 1138.9674 Q 559.7072999999999 1115.4936 575.3565 1110.4634999999998 Q 623.6081999999999 1088.6663999999998 678.3804 1118.847 Q 665.3394 1185.915 631.4327999999999 1266.3966 Q 604.0467 1273.1034 581.877 1269.75 Z" fill="url(#markFill)"/>
    <path d="M 609.0768 1304.79 Q 601.6248 1278.8322 607.0896 1248.7758000000001 Q 613.0512 1236.48 625.9680000000001 1241.9448 Q 617.0256 1273.3674 609.0768 1304.79 Z" fill="url(#innerDrop)" stroke="rgba(255,255,255,0.08)" stroke-width="2.9808"/>
  </g>
  <text x="621" y="1682.688" font-family="system-ui, -apple-system, sans-serif" font-size="130.41" font-weight="700" fill="white" text-anchor="middle" letter-spacing="8">ACE</text>
  <text x="621" y="1763.328" font-family="system-ui, -apple-system, sans-serif" font-size="31.05" fill="#b7c2ce" text-anchor="middle" letter-spacing="2">Travel, handled.</text>
</svg>